# xmcd
#
# Track frame offsets: 
#        150
#        11246
#        24534
#        37049
#        52265
#        67789
#        82040
#        95848
#        106709
#        119160
#        131700
#        145617
#        158606
#        171989
#        186426
#        198199
#        209630
#        222804
#        235406
#        248464
#
# Disc length: 3525 seconds
#
# Revision: 0
# Processed by: cddbd v1.5.2PL0 Copyright (c) Steve Scherf et al.
# Submitted via: ExactAudioCopy v0.99pb4
#
DISCID=270dc314
DTITLE=Various Artist - The Blues - Meaning of the Blues
DYEAR=2006
DGENRE=Blues
TTITLE0=Ella Fitzgerald - Pete Kelly's Blues
TTITLE1=Howlin' Wolf - Howlin' for my Darlin'
TTITLE2=B B King - Everyday I Have the Blues
TTITLE3=Josh White - How of the Rising Sun
TTITLE4=Ethel Waters - Harlem on My Mind
TTITLE5=Elmore James - Dust My Blues
TTITLE6=Albinia Jones - Salty Papa
TTITLE7=Leadbelly - Goodnight Irene
TTITLE8=Ray Charles and the Maxim Trio - Rockin' Chair Blues
TTITLE9=Dinah Washington - Evil Gal Blues
TTITLE10=Sonny Boy Williamson - Mattie Mae Blues
TTITLE11=Little Walter - Mean Old World
TTITLE12=Bessie Smith - New Orleans Hop Scotch Blues
TTITLE13=Mamie Smith - Jenny's Ball
TTITLE14=Blind Boy Fuller - What's That Smells Like Fish
TTITLE15=Kitty White - Meaning of the Blues
TTITLE16=Bertha "Chippie" Hill - Pratt City Blues
TTITLE17=Memphis Minnie - Me and My Chauffeur Blues
TTITLE18=Brownie McGhee - Born for Bad Luck
TTITLE19=Eartha Kitt - The Blues
EXTD=
EXTT0=
EXTT1=
EXTT2=
EXTT3=
EXTT4=
EXTT5=
EXTT6=
EXTT7=
EXTT8=
EXTT9=
EXTT10=
EXTT11=
EXTT12=
EXTT13=
EXTT14=
EXTT15=
EXTT16=
EXTT17=
EXTT18=
EXTT19=
PLAYORDER=
